<svg width="44" height="42" viewBox="0 0 44 42" fill="none" xmlns="http://www.w3.org/2000/svg">
<path d="M22.0141 39.2308C19.6493 39.2308 17.2276 40.431 15.054 41.4187C14.2332 41.7917 13.3176 42 12.352 42C8.81858 42 5.95416 39.2104 5.95416 35.7692C5.95416 33.6817 7.00829 31.8339 8.62644 30.7032C10.2603 29.5616 11.871 28.2766 13.2029 26.7567C14.3146 25.4882 15.3132 23.8709 15.8327 22.2292C16.7894 19.2058 19.0797 17.0769 21.7529 17.0769C24.2857 17.0769 26.4747 18.988 27.5115 21.7602C28.1518 23.4725 29.2797 25.1515 30.5269 26.4337C31.8912 27.8363 33.4967 28.9464 35.1328 29.9714C36.9021 31.0798 38.074 33.0143 38.074 35.2154C38.074 38.6565 35.2096 41.4462 31.6762 41.4462C30.9985 41.4462 30.3454 41.3435 29.7324 41.1534C27.2655 40.3881 24.5844 39.2308 22.0141 39.2308Z" fill="#FBA100"/>
<path d="M9.40382 18.9431C10.2175 23.4495 8.82405 27.5195 6.29137 28.0338C3.75869 28.5481 1.04589 25.3119 0.232174 20.8056C-0.581547 16.2992 0.811945 12.2292 3.34462 11.7149C5.8773 11.2006 8.5901 14.4368 9.40382 18.9431Z" fill="#FBA100"/>
<path d="M34.5962 18.9431C33.7825 23.4495 35.176 27.5195 37.7086 28.0338C40.2413 28.5481 42.9541 25.3119 43.7678 20.8056C44.5816 16.2992 43.1881 12.2292 40.6554 11.7149C38.1227 11.2006 35.4099 14.4368 34.5962 18.9431Z" fill="#FBA100"/>
<path d="M24.5243 7.8368C24.1319 12.4061 25.8956 16.3113 28.4637 16.5593C31.0317 16.8074 33.4317 13.3042 33.8241 8.73493C34.2165 4.16562 32.4528 0.26041 29.8847 0.0123971C27.3166 -0.235615 24.9167 3.26749 24.5243 7.8368Z" fill="#FBA100"/>
<path d="M19.4757 7.83681C19.8681 12.4061 18.1044 16.3113 15.5363 16.5594C12.9683 16.8074 10.5683 13.3043 10.1759 8.73495C9.78353 4.16563 11.5473 0.26042 14.1153 0.0124076C16.6834 -0.235605 19.0833 3.2675 19.4757 7.83681Z" fill="#FBA100"/>
</svg>
